<svg width="167" height="246" viewBox="0 0 167 246" fill="none" xmlns="http://www.w3.org/2000/svg">
<path d="M70.8876 0.00177788C69.0786 0.0302607 67.293 0.411985 65.6328 1.12514C63.9726 1.83831 62.4702 2.86893 61.2116 4.15816C59.9529 5.44739 58.9626 6.96997 58.2972 8.63893C57.6318 10.3079 57.3043 12.0905 57.3335 13.8851V28.6429C30.7762 34.4094 9.17779 53.5126 9.17779 80.3774C9.17779 112.161 37.8288 136.539 71.108 136.539C91.2187 136.539 105.489 150.094 105.489 165.372C105.489 180.649 91.2187 194.149 71.108 194.149C50.9972 194.149 36.7268 180.649 36.7268 165.372C37.0023 146.897 8.9023 146.897 9.17779 165.372C9.17779 192.264 30.7487 211.394 57.3335 217.133V232.165C57.058 250.612 85.158 250.612 84.8825 232.165V219.976C111.88 214.346 133.617 192.674 133.038 165.426C133.038 129.024 109.401 109.264 71.108 109.264C50.9972 109.264 36.7268 95.7091 36.7268 80.432C36.7268 65.3736 50.6666 52.1462 70.3366 51.7909C70.8591 51.8296 71.3834 51.8387 71.9069 51.8182C91.5769 52.2281 105.489 65.3736 105.489 80.432C105.214 98.934 133.314 98.934 133.038 80.432C133.038 53.1573 111.88 31.4579 84.8825 25.828V13.8851C84.9122 12.0537 84.5706 10.2352 83.8778 8.53741C83.1851 6.83967 82.1553 5.2974 80.8498 4.00228C79.5443 2.70717 77.9896 1.68564 76.2782 0.998399C74.5668 0.311158 72.7336 -0.0277655 70.8876 0.00177788Z" fill="white"/>
</svg>
