<svg width="22" height="18" viewBox="0 0 22 18" fill="none" xmlns="http://www.w3.org/2000/svg">
<path fill-rule="evenodd" clip-rule="evenodd" d="M10.5 12.7601L1.5 7.56007C1.34846 7.47216 1.22268 7.34599 1.13524 7.19418C1.0478 7.04237 1.00177 6.87026 1.00177 6.69507C1.00177 6.51988 1.0478 6.34776 1.13524 6.19595C1.22268 6.04415 1.34846 5.91797 1.5 5.83007L10.5 0.630069C10.652 0.5423 10.8245 0.496094 11 0.496094C11.1755 0.496094 11.348 0.5423 11.5 0.630069L20.5 5.83007C20.6515 5.91797 20.7773 6.04415 20.8648 6.19595C20.9522 6.34776 20.9982 6.51988 20.9982 6.69507C20.9982 6.87026 20.9522 7.04237 20.8648 7.19418C20.7773 7.34599 20.6515 7.47216 20.5 7.56007L11.5 12.7601C11.348 12.8479 11.1755 12.8941 11 12.8941C10.8245 12.8941 10.652 12.8479 10.5 12.7601ZM11 15.3501L19.5 10.4401C19.6135 10.3736 19.7391 10.3301 19.8695 10.3122C19.9998 10.2943 20.1325 10.3023 20.2597 10.3357C20.387 10.3692 20.5064 10.4274 20.6112 10.5071C20.7159 10.5868 20.8038 10.6864 20.87 10.8001C20.9361 10.9142 20.979 11.0403 20.9962 11.1711C21.0134 11.3019 21.0045 11.4348 20.9701 11.5621C20.9357 11.6895 20.8765 11.8087 20.7958 11.9131C20.7151 12.0174 20.6146 12.1048 20.5 12.1701L11.5 17.3701C11.348 17.4579 11.1755 17.5041 11 17.5041C10.8245 17.5041 10.652 17.4579 10.5 17.3701L1.5 12.1701C1.38542 12.1048 1.28488 12.0174 1.2042 11.9131C1.12352 11.8087 1.06427 11.6895 1.02988 11.5621C0.99549 11.4348 0.986631 11.3019 1.00381 11.1711C1.021 11.0403 1.06388 10.9142 1.13 10.8001C1.19617 10.6864 1.28413 10.5868 1.38885 10.5071C1.49358 10.4274 1.613 10.3692 1.74027 10.3357C1.86755 10.3023 2.00017 10.2943 2.13054 10.3122C2.26091 10.3301 2.38647 10.3736 2.5 10.4401L11 15.3501Z" fill="white"/>
</svg>
