<svg width="25" height="25" viewBox="0 0 25 25" fill="none" xmlns="http://www.w3.org/2000/svg">
<path d="M2 8.5H23C23.5304 8.5 24.0391 8.71071 24.4142 9.08579C24.7893 9.46086 25 9.96957 25 10.5V22.5C25 23.0304 24.7893 23.5391 24.4142 23.9142C24.0391 24.2893 23.5304 24.5 23 24.5H2C1.46957 24.5 0.960859 24.2893 0.585786 23.9142C0.210714 23.5391 0 23.0304 0 22.5V10.5C0 9.96957 0.210714 9.46086 0.585786 9.08579C0.960859 8.71071 1.46957 8.5 2 8.5ZM5 0.5H20C20.2652 0.5 20.5196 0.605357 20.7071 0.792893C20.8946 0.98043 21 1.23478 21 1.5C21 1.76522 20.8946 2.01957 20.7071 2.20711C20.5196 2.39464 20.2652 2.5 20 2.5H5C4.73478 2.5 4.48043 2.39464 4.29289 2.20711C4.10536 2.01957 4 1.76522 4 1.5C4 1.23478 4.10536 0.98043 4.29289 0.792893C4.48043 0.605357 4.73478 0.5 5 0.5ZM3 4.5H22C22.2652 4.5 22.5196 4.60536 22.7071 4.79289C22.8946 4.98043 23 5.23478 23 5.5C23 5.76522 22.8946 6.01957 22.7071 6.20711C22.5196 6.39464 22.2652 6.5 22 6.5H3C2.73478 6.5 2.48043 6.39464 2.29289 6.20711C2.10536 6.01957 2 5.76522 2 5.5C2 5.23478 2.10536 4.98043 2.29289 4.79289C2.48043 4.60536 2.73478 4.5 3 4.5Z" fill="white"/>
</svg>
