<svg width="105" height="157" viewBox="0 0 105 157" fill="none" xmlns="http://www.w3.org/2000/svg">
<path fill-rule="evenodd" clip-rule="evenodd" d="M67.8568 70.5886L36.5314 25H91.5C98.4036 25 104 19.4036 104 12.5C104 5.59644 98.4036 0 91.5 0H13.5C7.00604 0 1.6687 4.95203 1.05819 11.2858C0.532023 14.3783 1.16218 17.6708 3.07901 20.4604L42.7271 78.1611L3.19803 135.695C1.28148 138.485 0.651713 141.777 1.17836 144.869C1.7897 151.201 7.12553 156.151 13.6175 156.151H91.5906C98.4928 156.151 104.088 150.556 104.088 143.654C104.088 136.751 98.4928 131.156 91.5906 131.156H36.6403L67.9563 85.576C69.8234 82.8584 70.4693 79.6635 70.0144 76.6413C69.8432 74.539 69.137 72.4517 67.8568 70.5886Z" fill="white"/>
</svg>
