<svg width="257" height="257" viewBox="0 0 257 257" fill="none" xmlns="http://www.w3.org/2000/svg">
<path fill-rule="evenodd" clip-rule="evenodd" d="M9.69831 9.89823C-2.84976 22.4463 -2.84976 42.7908 9.69831 55.3388L82.8466 128.487L9.69847 201.635C-2.8496 214.184 -2.8496 234.528 9.69847 247.076C22.2465 259.624 42.591 259.624 55.139 247.076L128.287 173.928L201.435 247.076C213.983 259.624 234.328 259.624 246.876 247.076C259.424 234.528 259.424 214.184 246.876 201.635L173.728 128.487L246.876 55.3388C259.424 42.7908 259.424 22.4463 246.876 9.89823C234.328 -2.64984 213.984 -2.64985 201.435 9.89823L128.287 83.0466L55.1389 9.89823C42.5908 -2.64985 22.2464 -2.64985 9.69831 9.89823Z" fill="black" fill-opacity="0.8"/>
</svg>
