<svg xmlns="http://www.w3.org/2000/svg" viewBox="0 0 96 96" id="happy"><path d="m70.224 77.563-.276 3.718M69.95 81.928c-.017 0-.033 0-.05-.003a.645.645 0 0 1-.593-.693l.276-3.717c.028-.36.329-.653.689-.597.354.025.62.336.593.693l-.276 3.717a.645.645 0 0 1-.64.6zM25.756 77.562l.249 3.719M26.004 81.928a.645.645 0 0 1-.64-.605l-.25-3.717a.643.643 0 0 1 .597-.688c.355-.05.663.245.685.602l.25 3.717a.643.643 0 0 1-.597.688c-.015.003-.03.003-.045.003z"></path><path d="M47.99 91a23.24 23.24 0 0 1-5.809-.733l-18.513-4.763c-3.524-.908-5.985-4.102-5.985-7.767 0-5.69 4.592-10.319 10.236-10.319h8.68c.651.028 1.716-.035 2.03-.58.379-.657.014-2.192-.89-3.826l-.113-.035a1.298 1.298 0 0 1-.856-1.616 1.28 1.28 0 0 1 1.602-.863l.595.182c.303.094.561.294.726.567.789 1.308 2.481 4.595 1.157 6.892-.514.893-1.678 1.952-4.286 1.869h-8.645c-4.227 0-7.667 3.467-7.667 7.73a5.417 5.417 0 0 0 4.052 5.257l18.514 4.763c3.384.87 6.96.87 10.343 0l18.516-4.763c2.385-.614 4.05-2.777 4.05-5.258 0-4.262-3.439-7.729-7.667-7.729h-8.68c-2.565.086-3.738-.976-4.25-1.87-1.324-2.296.368-5.583 1.157-6.891.164-.273.423-.473.725-.567l.596-.182a1.277 1.277 0 0 1 1.602.863 1.298 1.298 0 0 1-.857 1.616l-.113.035c-.903 1.634-1.268 3.17-.89 3.827.313.544 1.392.604 1.995.58h8.715c5.644 0 10.237 4.627 10.237 10.318 0 3.665-2.461 6.86-5.984 7.767l-18.516 4.763c-1.9.49-3.853.733-5.807.733z"></path><path d="m61.869 78.187 2.312-9.259-3.166-.129-1.028 9c-7.517-1.342-10.268.646-12.021 4.011-1.754-3.365-4.454-5.353-11.972-4.011l-1.028-9-3.166.13 2.313 9.258-8.093 3.108v3.561l19.669 4.722c1.497.36 3.056.36 4.554.001l19.719-4.723v-3.561l-8.093-3.108zM32.286 83.8a2.096 2.096 0 0 1-2.088-2.104c0-1.162.935-2.104 2.088-2.104s2.087.942 2.087 2.104a2.096 2.096 0 0 1-2.087 2.104zm6.442-1.129c-1.153 0-2.087-.942-2.087-2.104s.934-2.104 2.087-2.104 2.088.942 2.088 2.104-.935 2.104-2.088 2.104zm5.523 4.528a2.096 2.096 0 0 1-2.087-2.104c0-1.162.935-2.104 2.087-2.104 1.153 0 2.088.942 2.088 2.104a2.096 2.096 0 0 1-2.088 2.104zm11.704-1.295a2.096 2.096 0 0 1-2.087-2.104c0-1.162.934-2.104 2.087-2.104s2.088.942 2.088 2.104a2.096 2.096 0 0 1-2.088 2.104zm8.543-1.673a2.096 2.096 0 0 1-2.088-2.104c0-1.163.935-2.105 2.088-2.105s2.087.942 2.087 2.105a2.096 2.096 0 0 1-2.087 2.104z"></path><path d="M47.966 90.494a10.45 10.45 0 0 1-2.426-.286l-19.67-4.722a.645.645 0 0 1-.492-.63v-3.56c0-.268.164-.509.414-.605l7.558-2.903-2.173-8.703a.652.652 0 0 1 .597-.804l3.167-.13c.358.03.627.238.664.575l.95 8.32c6.975-1.08 9.764.88 11.416 3.478 2.2-3.371 5.63-4.398 11.456-3.477l.95-8.321c.038-.337.326-.55.664-.574l3.167.129a.638.638 0 0 1 .488.26.656.656 0 0 1 .109.546l-2.174 8.7 7.56 2.904c.25.096.413.337.413.605v3.56a.645.645 0 0 1-.494.63l-19.72 4.722c-.792.19-1.609.286-2.424.286zm-21.304-6.148 19.176 4.603a9.17 9.17 0 0 0 4.257 0l19.225-4.603V81.74l-2.425-.931c.212.392.332.84.332 1.315 0 1.518-1.224 2.752-2.73 2.752s-2.73-1.234-2.73-2.752c0-1.191.755-2.208 1.807-2.59l-1.934-.743a.647.647 0 0 1-.394-.764l2.12-8.485-1.781-.074-.959 8.402a.654.654 0 0 1-.254.445.637.637 0 0 1-.496.12c-7.157-1.276-9.708.545-11.342 3.674-.22.425-.916.425-1.136 0-1.351-2.59-3.173-4.246-7.631-4.087a2.757 2.757 0 0 1 1.69 2.544c0 1.518-1.224 2.752-2.73 2.752s-2.729-1.234-2.729-2.752c0-.971.502-1.826 1.258-2.316-.368.053-.752.113-1.15.184a.629.629 0 0 1-.496-.119.654.654 0 0 1-.254-.445l-.959-8.402-1.781.074 2.12 8.487a.648.648 0 0 1-.395.762l-.976.377a2.757 2.757 0 0 1 1.65 2.526c0 1.518-1.224 2.752-2.729 2.752-1.505 0-2.73-1.234-2.73-2.752 0-.415.092-.81.256-1.163l-3.15 1.209v2.605zm37.836-3.678c-.797 0-1.446.653-1.446 1.457s.649 1.457 1.446 1.457 1.445-.653 1.445-1.457-.649-1.457-1.445-1.457zm-32.212-.43c-.797 0-1.445.653-1.445 1.457s.648 1.457 1.445 1.457 1.445-.653 1.445-1.457-.648-1.457-1.445-1.457zm6.442-1.128c-.797 0-1.445.653-1.445 1.457s.648 1.457 1.445 1.457 1.445-.653 1.445-1.457-.649-1.457-1.445-1.457zm5.523 8.736c-1.505 0-2.73-1.234-2.73-2.752 0-1.517 1.225-2.751 2.73-2.751 1.506 0 2.73 1.234 2.73 2.751 0 1.518-1.224 2.752-2.73 2.752zm0-4.208c-.796 0-1.445.652-1.445 1.456 0 .805.649 1.457 1.445 1.457s1.446-.652 1.446-1.457c0-.804-.649-1.456-1.446-1.456zm11.704 2.913c-1.506 0-2.73-1.234-2.73-2.752 0-1.517 1.224-2.751 2.73-2.751s2.73 1.234 2.73 2.751c0 1.518-1.225 2.752-2.73 2.752zm0-4.208c-.797 0-1.446.652-1.446 1.456 0 .805.649 1.457 1.446 1.457S57.4 84.604 57.4 83.8c0-.804-.649-1.456-1.445-1.456z"></path><path d="M39.912 14.202c8.588-11.818 23.476-11.171 28.92.596 9.565-.298 2.238 23.097 10.073 14.94.276 1.76.076 3.31-1.22 4.377 7.258 5.514.063 8.626-1.912 12.18-.572 1.03-1.155 2.605-.174 4.35 1.057 1.882 1.768 3.087 1.977 5.239.628 6.47-5.262 8.745-9.71 13.06l-9.457.07c-4.605-.786-1.55-5.308-.58-7.795 5.335-3.289 8.156-8.184 8.757-12.897 5.008.544 7.417-7.792.171-8.054-2.442-.214-3.97-3.888-3.44-6.37-1.546-.208-3.985-.382-5.265-.568-4.479-.65-8.075-4.007-9.278-8.404-1.43-5.219-7.113-2.796-7.79-.632-4.41.167-5.667 2.146-4.18 6.343-.082 3.955-1.645 2.41-4.101 2.902.075 1.047-.034 2.442-.33 3.379-.673 2.127-1.864 3.855-5.54 3.656-3.598 1.088-2.237 8.355 2.274 7.748-.065 2.405 5.113 12.4 9.08 13.023 2.559 2.91 3.096 8.286-2.189 7.713H24.84s-4.634-.067-6.903-7.202c-1.14-3-.572-6.29.877-9.152.199-.393.375-.797.529-1.209.292-.784.121-1.67-.312-2.385-5.184-8.565-5.574-15.48 1.04-19.987-1.843-2.387-2.417-3.729-.593-7.278.758 1.466 1.37 1.69 2.424 1.31 3.928-1.545 4.732-12.136 18.011-8.953z"></path><path d="M36.737 69.747c-.252 0-.52-.015-.808-.045l-11.09.002c-.217-.002-5.132-.159-7.515-7.65-1.093-2.873-.772-6.31.917-9.644.19-.372.355-.754.5-1.143.201-.539.103-1.22-.26-1.821-5.527-9.132-5.297-16.013.676-20.465-1.622-2.22-2.087-3.862-.25-7.434a.641.641 0 0 1 1.14-.001c.693 1.34 1.029 1.22 1.637.998.981-.385 1.826-1.585 2.802-2.975 2.435-3.465 5.754-8.188 15.161-6.093 4.426-5.884 10.756-9.021 17.025-8.398 5.447.54 10.006 3.838 12.565 9.073 5.155.176 5.615 6.693 5.954 11.484.154 2.192.347 4.92 1.022 5.167.093.036.65.132 2.23-1.514a.645.645 0 0 1 .656-.166.646.646 0 0 1 .441.516c.297 1.9.008 3.356-.885 4.423 1.788 1.485 2.717 2.931 2.832 4.406.176 2.224-1.479 3.955-3.078 5.628-.833.872-1.619 1.694-2.075 2.516-.768 1.383-.824 2.563-.177 3.714l.099.176c1.012 1.8 1.744 3.1 1.96 5.318.502 5.183-2.86 7.833-6.417 10.64-1.172.924-2.383 1.877-3.488 2.95a.628.628 0 0 1-.44.182l-9.456.07c-1.45-.237-2.355-.791-2.804-1.654-.852-1.636.2-3.902 1.044-5.72.218-.471.424-.914.575-1.306a.654.654 0 0 1 .264-.313c4.74-2.921 7.82-7.451 8.455-12.427a.656.656 0 0 1 .706-.562c1.321.146 2.54-.43 3.328-1.577.74-1.073.899-2.406.407-3.396-.548-1.106-1.813-1.725-3.656-1.791-1.085-.095-2.046-.694-2.811-1.739-.962-1.312-1.463-3.128-1.336-4.717-.623-.07-1.327-.139-2.016-.205-.991-.094-1.952-.188-2.61-.283-4.667-.678-8.517-4.16-9.807-8.873-.467-1.705-1.474-2.62-2.914-2.647l-.063-.001c-1.592 0-3.29 1.109-3.581 2.038a.646.646 0 0 1-.589.453c-1.98.074-3.215.517-3.774 1.35-.568.844-.509 2.193.176 4.128a.654.654 0 0 1 .038.231c-.033 1.53-.276 2.403-.815 2.92-.587.563-1.336.54-2.14.516-.347-.009-.727-.024-1.125.013.01.948-.099 2.118-.382 3.016-.636 2.013-1.902 4.283-6.066 4.111-1.378.49-1.693 2.182-1.395 3.579.347 1.619 1.574 3.139 3.498 2.876.2-.018.376.035.515.16.14.128.218.31.212.5-.058 2.182 4.988 11.808 8.537 12.365a.647.647 0 0 1 .382.21c1.588 1.805 2.694 4.863 1.615 6.97-.372.726-1.312 1.859-3.546 1.861zm-.739-1.337c1.64.177 2.676-.2 3.144-1.118.671-1.31.089-3.673-1.297-5.355-3.948-.935-8.695-9.545-9.314-12.931-2.352-.027-3.846-1.977-4.262-3.93-.426-1.99.138-4.444 2.38-5.122a.627.627 0 0 1 .218-.027c3.177.177 4.247-1.158 4.893-3.205.254-.8.377-2.088.302-3.135a.647.647 0 0 1 .515-.682c.745-.15 1.416-.13 1.953-.114.63.02 1.027.02 1.217-.159.168-.162.375-.623.413-1.893-.793-2.29-.79-3.985.009-5.175.757-1.129 2.194-1.751 4.384-1.897.74-1.394 2.88-2.557 4.71-2.511 1.18.021 3.286.517 4.13 3.598 1.153 4.216 4.588 7.332 8.75 7.935.643.094 1.581.183 2.55.277.957.09 1.94.186 2.708.288a.645.645 0 0 1 .543.78c-.29 1.364.126 3.163 1.013 4.373.376.514 1.003 1.141 1.855 1.216 3.082.11 4.287 1.616 4.727 2.504.71 1.428.518 3.234-.5 4.714-.928 1.345-2.354 2.123-3.902 2.153-.833 5.07-4.007 9.65-8.791 12.665-.15.362-.334.759-.529 1.176-.723 1.56-1.624 3.503-1.068 4.573.252.486.846.81 1.768.969l9.09-.079c1.1-1.044 2.267-1.965 3.4-2.858 3.415-2.693 6.364-5.02 5.929-9.494-.188-1.945-.794-3.023-1.797-4.806l-.099-.177c-.867-1.54-.809-3.217.172-4.985.538-.968 1.419-1.89 2.27-2.78 1.403-1.467 2.854-2.985 2.724-4.629-.096-1.235-1.048-2.524-2.908-3.936a.649.649 0 0 1-.02-1.018c.717-.592 1.072-1.381 1.093-2.484-1.05.878-1.877 1.153-2.597.889-1.458-.535-1.628-2.95-1.865-6.294-.412-5.82-1.038-10.283-4.896-10.283-.06 0-.123 0-.181.002a.64.64 0 0 1-.582-.374c-2.325-5.024-6.591-8.197-11.703-8.704-5.938-.582-11.95 2.485-16.117 8.218a.644.644 0 0 1-.666.247c-8.888-2.13-11.846 2.094-14.23 5.486-1.096 1.559-2.043 2.906-3.4 3.44-1.202.44-1.969.14-2.573-.588-1.063 2.483-.527 3.558 1.016 5.554a.654.654 0 0 1-.147.935c-5.916 4.031-6.195 10.284-.852 19.113.576.953.709 2.027.365 2.95A12.8 12.8 0 0 1 19.385 53c-1.52 3.002-1.823 6.065-.85 8.625 2.098 6.59 6.146 6.78 6.318 6.786h11.145z"></path><path d="M48.213 64.917h-.606c-9.678 0-16.703-5.554-19.404-15.32-1.502-.18-2.798-1.021-3.655-2.402-1.176-1.897-1.302-4.493-.3-6.174.72-1.206 1.944-1.851 3.366-1.737 2.78-.257 4.002-1.159 3.86-6.082a1.292 1.292 0 0 1 1.247-1.333c.69.018 1.303.543 1.323 1.257.121 4.24-.571 8.234-6.41 8.739-.653-.024-.96.114-1.184.492-.507.848-.382 2.402.276 3.465.555.894 1.358 1.3 2.361 1.211a1.3 1.3 0 0 1 1.361.985c2.193 9.106 8.453 14.309 17.2 14.309h.525c8.776 0 15.036-5.203 17.228-14.309a1.286 1.286 0 0 1 1.35-.986c1.455.125 2.255-.775 2.588-1.32.6-.98.668-2.246.167-3.082-.575-.957-1.742-1.074-2.631-1.023-.132.009-.261 0-.387-.032-4.388-1.047-4.69-4.435-4.622-8.112.013-.715.626-1.309 1.308-1.271a1.292 1.292 0 0 1 1.26 1.319c-.074 4.062.555 5.001 2.471 5.5 2.913-.134 4.249 1.362 4.798 2.278.996 1.658.925 3.981-.177 5.782-.893 1.458-2.27 2.345-3.878 2.527-2.7 9.765-9.729 15.316-19.435 15.319z"></path><ellipse cx="40.044" cy="42.141" rx="1.605" ry="1.618"></ellipse><path d="M40.044 45.054c-1.593 0-2.89-1.308-2.89-2.914s1.297-2.912 2.89-2.912c1.593 0 2.89 1.306 2.89 2.912s-1.297 2.914-2.89 2.914zm0-3.236a.32.32 0 0 0-.32.322c0 .357.641.357.641 0a.322.322 0 0 0-.321-.322z"></path><ellipse cx="55.935" cy="41.82" rx="1.605" ry="1.618"></ellipse><path d="M55.936 44.733c-1.593 0-2.89-1.307-2.89-2.913 0-1.606 1.297-2.913 2.89-2.913s2.889 1.307 2.889 2.913c0 1.606-1.296 2.913-2.89 2.913zm0-3.236a.323.323 0 0 0-.321.323c0 .357.64.357.64 0a.322.322 0 0 0-.32-.323zm-1.6 12.157a.645.645 0 0 1-.642-.647v-2.246H42.297v2.246a.645.645 0 0 1-.642.647.645.645 0 0 1-.643-.647v-2.895c0-.358.288-.647.643-.647h12.681c.355 0 .643.29.643.647v2.895a.645.645 0 0 1-.643.647z"></path><path d="M41.644 53.066c0 1.793 1.181 3.38 2.928 4.288.977.515 2.159.804 3.418.804 1.284 0 2.44-.289 3.417-.804a8.735 8.735 0 0 0 1.079-.68c1.13-.928 1.85-2.206 1.85-3.608H41.643zm6.354 4.78c-1.565 0-3.034-.402-4.248-1.12.862-1.319 2.427-2.208 4.248-2.208 1.82 0 3.386.89 4.249 2.208-1.214.718-2.652 1.12-4.249 1.12z"></path><path d="M47.99 58.806c-1.344 0-2.628-.303-3.716-.877-2.047-1.065-3.273-2.884-3.273-4.864 0-.356.287-.647.642-.647h12.692c.355 0 .642.29.642.647 0 1.545-.74 3.007-2.086 4.11a9.325 9.325 0 0 1-1.182.751c-1.107.584-2.358.88-3.72.88zm-3.253-2.294c1.995.906 4.556.898 6.523.003-.81-.857-1.983-1.35-3.261-1.35s-2.45.493-3.262 1.347zm3.262-2.643c1.755 0 3.363.741 4.417 2.006.646-.625 1.066-1.37 1.215-2.162H42.347c.152.794.58 1.54 1.234 2.16 1.056-1.265 2.664-2.004 4.418-2.004z"></path></svg>